<svg width="1454" height="321" viewBox="0 0 1454 321" fill="none" xmlns="http://www.w3.org/2000/svg">
<path d="M0 283.143L52.0206 36.8231H88.8601L141.083 283.143H103.434L94.9326 238.702H44.3289L36.0298 283.143H0ZM52.6279 194.95H86.6336L75.7032 135.351L70.0355 100.556H69.6307C67.3367 115.255 65.38 126.853 63.7607 135.351L52.6279 194.95Z" fill="#1A0800"/>
<path d="M151.258 283.143V36.8231H221.091C235.53 36.8231 246.797 42.45 254.894 53.7038C263.261 65.4169 267.444 81.1492 267.444 100.901C267.444 124.327 260.697 140.404 247.202 149.131V150.165C255.164 154.299 261.439 161.763 266.027 172.558C270.75 183.352 273.111 195.984 273.111 210.453C273.111 234.339 268.186 252.712 258.335 265.574C249.564 277.287 237.689 283.143 222.71 283.143H151.258ZM186.68 234.224H218.662C224.464 234.224 229.052 231.583 232.426 226.3C235.935 221.018 237.689 214.013 237.689 205.286C237.689 195.869 235.867 188.634 232.224 183.582C228.58 178.299 223.925 175.658 218.257 175.658H186.68V234.224ZM186.68 134.318H215.828C221.091 134.318 225.274 132.136 228.378 127.772C231.616 123.408 233.236 117.322 233.236 109.513C233.236 101.934 231.684 95.9629 228.58 91.5992C225.476 87.2355 221.293 85.0536 216.03 85.0536H186.68V134.318Z" fill="#1A0800"/>
<path d="M352.842 239.391C364.178 239.391 372.814 232.157 378.751 217.688C384.824 202.989 387.86 183.926 387.86 160.5C387.86 137.074 384.824 118.011 378.751 103.312C372.814 88.6135 364.178 81.2641 352.842 81.2641C341.642 81.2641 332.938 88.6135 326.731 103.312C320.658 118.011 317.622 137.074 317.622 160.5C317.622 183.697 320.658 202.644 326.731 217.343C332.938 232.042 341.642 239.391 352.842 239.391ZM404.66 252.827C391.571 276.942 374.231 289 352.64 289C331.049 289 313.709 276.942 300.619 252.827C287.665 228.712 281.187 197.936 281.187 160.5C281.187 123.064 287.665 92.2882 300.619 68.1729C313.709 44.0576 331.049 32 352.64 32C374.231 32 391.571 44.0576 404.66 68.1729C417.75 92.2882 424.295 123.064 424.295 160.5C424.295 197.936 417.75 228.712 404.66 252.827Z" fill="#1A0800"/>
<path d="M497.988 287.622C478.016 287.622 462.903 279.698 452.647 263.851C442.391 248.004 437.263 225.496 437.263 196.328V36.8231H473.091V198.395C473.091 225.267 481.39 238.702 497.988 238.702C505.95 238.702 512.022 235.028 516.205 227.678C520.389 220.099 522.48 209.994 522.48 197.362V36.8231H558.308V196.328C558.308 225.267 553.18 247.774 542.924 263.851C532.803 279.698 517.825 287.622 497.988 287.622Z" fill="#1A0800"/>
<path d="M612.665 283.143V88.4987H570.563V36.8231H691V88.4987H648.493V283.143H612.665Z" fill="#1A0800"/>
<rect x="747" y="111.5" width="196" height="98" fill="#1A0800"/>
<path d="M999 289V32H1077.36L1106 144.505L1119.5 203.094H1120.16C1126.3 174.818 1130.69 155.288 1133.33 144.505L1162.3 32H1241.32V289H1187.98V159.601L1188.97 108.201H1188.31C1182.82 133.841 1179.2 149.777 1177.45 156.007L1143.53 289H1095.47L1061.88 156.366L1051.02 108.201H1050.36C1051.02 135.759 1051.35 153.012 1051.35 159.961V289H999Z" fill="#1A0800"/>
<path d="M1273.58 289V32H1452.02V84.4783H1331.85V130.487H1434.9V180.09H1331.85V235.084H1454V289H1273.58Z" fill="#1A0800"/>
</svg>
