<svg width="1428" height="321" viewBox="0 0 1428 321" fill="none" xmlns="http://www.w3.org/2000/svg">
<path d="M9.91172 283.481L14.1814 223.801H0L3.35474 180.336H17.3836L19.8235 145.839H5.64206L8.9968 102.373H23.0257L27.1429 46.8335H43.0016L38.8845 102.373H54.5907L58.7079 46.8335H74.5667L70.4495 102.373H84.7834L81.4286 145.839H67.2472L64.8074 180.336H78.8363L75.6341 223.801H61.6052L57.3355 283.481H41.4768L45.7464 223.801H30.0402L25.7705 283.481H9.91172ZM33.2424 180.336H48.9487L51.3885 145.839H35.6822L33.2424 180.336Z" fill="#1A0800"/>
<path d="M95.2455 283.481V36.8295H147.396C158.579 36.8295 167.728 43.1539 174.844 55.8027C181.96 68.2215 185.518 85.5848 185.518 107.893C185.518 137.79 179.216 157.683 166.61 167.572V168.607C175.759 175.506 181.045 190.57 182.469 213.797C183.079 221.847 183.485 231.851 183.689 243.809C183.994 255.538 184.349 264.392 184.756 270.372C185.163 276.121 185.925 279.456 187.043 280.376V283.481H160.815C160.002 282.331 159.341 278.996 158.833 273.477C158.426 267.957 158.071 260.138 157.766 250.019C157.461 239.9 157.105 231.966 156.698 226.216C155.275 202.758 149.226 191.03 138.552 191.03H122.236V283.481H95.2455ZM122.236 145.839H142.517C147.803 145.839 151.819 143.194 154.563 137.905C157.308 132.615 158.681 125.256 158.681 115.827C158.681 106.628 157.359 99.2685 154.716 93.749C152.073 87.9995 148.21 85.1248 143.127 85.1248H122.236V145.839Z" fill="#1A0800"/>
<path d="M197.549 283.481V36.8295H280.198V87.1946H224.54V131.35H272.269V178.956H224.54V231.736H281.113V283.481H197.549Z" fill="#1A0800"/>
<path d="M340.474 289C324.615 289 311.653 277.041 301.589 253.123C291.627 228.976 286.645 198.274 286.645 161.017C286.645 123.761 291.576 92.9441 301.437 68.5664C311.298 44.1888 324.259 32 340.321 32C352.724 32 363.093 39.2443 371.429 53.7329C380.883 69.8313 386.322 92.4841 387.745 121.691H360.755C360.043 110.422 357.857 101.108 354.198 93.749C350.538 86.3897 345.862 82.7101 340.169 82.7101C331.629 82.7101 325.123 89.9544 320.65 104.443C316.279 118.702 314.093 137.56 314.093 161.017C314.093 184.015 316.482 202.758 321.26 217.247C326.038 231.736 332.392 238.98 340.321 238.98C346.217 238.98 351.046 235.185 354.808 227.596C358.671 220.007 360.907 210.118 361.517 197.929H388.507C387.694 222.766 383.323 243.809 375.393 261.058C366.854 279.686 355.214 289 340.474 289Z" fill="#1A0800"/>
<path d="M398.137 283.481V36.8295H480.785V87.1946H425.127V131.35H472.856V178.956H425.127V231.736H481.7V283.481H398.137Z" fill="#1A0800"/>
<path d="M493.889 283.481V36.8295H521.031L553.359 160.672L560.831 192.064H561.136C560.933 172.286 560.831 159.523 560.831 153.773V36.8295H587.211V283.481H560.068L528.046 161.362L520.269 128.246H519.964C520.167 149.404 520.269 162.857 520.269 168.607V283.481H493.889Z" fill="#1A0800"/>
<path d="M628.987 283.481V88.5745H597.27V36.8295H688V88.5745H655.977V283.481H628.987Z" fill="#1A0800"/>
<path d="M788.302 283.143L744 36.8231H784.46L800.734 140.174L808.193 201.151H808.645C811.508 178.644 814.145 159.122 816.556 142.586L831.7 36.8231H868.769L883.914 141.897L891.599 201.151H892.051C895.064 176.347 897.777 155.792 900.188 139.485L916.236 36.8231H956.47L912.168 283.143H873.064L856.112 164.979L850.461 119.16H850.009C848.201 136.614 846.392 151.887 844.584 164.979L827.632 283.143H788.302Z" fill="#1A0800"/>
<path d="M1034.26 239.391C1046.92 239.391 1056.56 232.157 1063.19 217.688C1069.97 202.989 1073.36 183.926 1073.36 160.5C1073.36 137.074 1069.97 118.011 1063.19 103.312C1056.56 88.6135 1046.92 81.2641 1034.26 81.2641C1021.75 81.2641 1012.03 88.6135 1005.1 103.312C998.321 118.011 994.93 137.074 994.93 160.5C994.93 183.697 998.321 202.644 1005.1 217.343C1012.03 232.042 1021.75 239.391 1034.26 239.391ZM1092.12 252.827C1077.51 276.942 1058.14 289 1034.03 289C1009.92 289 990.56 276.942 975.944 252.827C961.478 228.712 954.245 197.936 954.245 160.5C954.245 123.064 961.478 92.2882 975.944 68.1729C990.56 44.0576 1009.92 32 1034.03 32C1058.14 32 1077.51 44.0576 1092.12 68.1729C1106.74 92.2882 1114.05 123.064 1114.05 160.5C1114.05 197.936 1106.74 228.712 1092.12 252.827Z" fill="#1A0800"/>
<path d="M1129.66 283.143V36.8231H1206.96C1223.54 36.8231 1237.1 43.139 1247.65 55.7708C1258.2 68.1729 1263.47 85.513 1263.47 107.791C1263.47 137.648 1254.13 157.514 1235.44 167.39V168.424C1249.01 175.314 1256.84 190.357 1258.95 213.554C1259.86 221.592 1260.46 231.583 1260.76 243.525C1261.21 255.239 1261.74 264.081 1262.34 270.052C1262.94 275.794 1264.07 279.124 1265.73 280.043V283.143H1226.85C1225.65 281.995 1224.67 278.665 1223.92 273.153C1223.31 267.641 1222.79 259.832 1222.33 249.727C1221.88 239.621 1221.35 231.698 1220.75 225.956C1218.64 202.53 1209.68 190.816 1193.85 190.816H1169.67V283.143H1129.66ZM1169.67 145.686H1199.73C1207.57 145.686 1213.52 143.045 1217.59 137.763C1221.66 132.48 1223.69 125.131 1223.69 115.714C1223.69 106.528 1221.73 99.1783 1217.81 93.6662C1213.9 87.9245 1208.17 85.0536 1200.64 85.0536H1169.67V145.686Z" fill="#1A0800"/>
<path d="M1281.31 283.143V36.8231H1321.31V126.05L1376.92 36.8231H1424.38L1362.45 135.696L1428 283.143H1381.44L1334.87 176.692L1321.31 198.395V283.143H1281.31Z" fill="#1A0800"/>
</svg>
