<svg width="83" height="21" viewBox="0 0 83 21" fill="none" xmlns="http://www.w3.org/2000/svg">
<path d="M27.2852 10.9762L27.5672 9.47786C27.5672 9.47786 25.3949 8.81967 23.627 10.0403V16.0343H25.5044V11.1645C26.2526 10.602 27.2852 10.9762 27.2852 10.9762" fill="white"/>
<mask id="mask0_13_335" style="mask-type:luminance" maskUnits="userSpaceOnUse" x="23" y="9" width="5" height="8">
<path fill-rule="evenodd" clip-rule="evenodd" d="M23.627 10.0403C24.4776 9.45315 25.4219 9.30071 26.1728 9.30082C26.9825 9.30082 27.5674 9.47797 27.5674 9.47797L27.2852 10.9763C27.2852 10.9763 26.2526 10.6021 25.5044 11.1645V16.0343H23.627V10.0403Z" fill="white"/>
</mask>
<g mask="url(#mask0_13_335)">
<path d="M-90.6606 34.6118L173.735 34.6118V-314.831H-90.6606L-90.6606 34.6118Z" fill="white"/>
</g>
<mask id="mask1_13_335" style="mask-type:luminance" maskUnits="userSpaceOnUse" x="23" y="9" width="5" height="8">
<path fill-rule="evenodd" clip-rule="evenodd" d="M23.627 10.0403C24.4776 9.45315 25.4218 9.30082 26.1728 9.30082C26.9825 9.30082 27.5674 9.47797 27.5674 9.47797L27.2852 10.9763C27.2852 10.9763 26.2526 10.6021 25.5044 11.1645V16.0343H23.627V10.0403Z" fill="white"/>
</mask>
<g mask="url(#mask1_13_335)">
<path d="M20.4795 18.9709H30.715V6.3643H20.4795V18.9709Z" fill="white"/>
</g>
<path d="M11.0991 7.76908L12.9757 7.43924V9.38866H14.8327V10.9476H12.9757V13.2725C12.9757 13.6686 13.0444 13.983 13.1847 14.2155C13.3235 14.4516 13.6018 14.5686 14.0197 14.5686C14.2241 14.5686 14.4293 14.5503 14.6458 14.5115C14.8561 14.472 15.0523 14.4214 15.2288 14.355L15.4943 15.8153C15.2672 15.9062 15.0161 15.9851 14.7393 16.052C14.4616 16.1182 14.1207 16.1528 13.7179 16.1528C13.2058 16.1528 12.7826 16.0831 12.4461 15.945C12.1113 15.8068 11.8421 15.613 11.6415 15.3656C11.4408 15.1204 11.2997 14.8195 11.2205 14.4671C11.1398 14.1154 11.0991 13.727 11.0991 13.2986V7.76908Z" fill="white"/>
<mask id="mask2_13_335" style="mask-type:luminance" maskUnits="userSpaceOnUse" x="11" y="7" width="5" height="10">
<path fill-rule="evenodd" clip-rule="evenodd" d="M11.0991 7.76908L12.9757 7.43924V9.38866H14.8327V10.9476H12.9757V13.2725C12.9757 13.6687 13.0444 13.983 13.1846 14.2155C13.3234 14.4517 13.6017 14.5686 14.0196 14.5686C14.2239 14.5686 14.429 14.5503 14.6456 14.5115C14.856 14.472 15.0523 14.4214 15.2288 14.3551L15.4942 15.8153C15.2672 15.9063 15.016 15.9852 14.7392 16.0521C14.4615 16.1184 14.1206 16.1528 13.7178 16.1528C13.2056 16.1528 12.7825 16.0831 12.4461 15.945C12.1112 15.8068 11.8419 15.613 11.6413 15.3657C11.4407 15.1204 11.2997 14.8195 11.2205 14.4671C11.1397 14.1154 11.0991 13.7271 11.0991 13.2986V7.76908Z" fill="white"/>
</mask>
<g mask="url(#mask2_13_335)">
<path d="M-90.6606 34.6118L173.735 34.6118V-314.831H-90.6606L-90.6606 34.6118Z" fill="white"/>
</g>
<mask id="mask3_13_335" style="mask-type:luminance" maskUnits="userSpaceOnUse" x="11" y="7" width="5" height="10">
<path fill-rule="evenodd" clip-rule="evenodd" d="M11.0991 7.76908L12.9757 7.43924V9.38866H14.8327V10.9476H12.9757V13.2725C12.9757 13.6687 13.0444 13.983 13.1846 14.2155C13.3234 14.4517 13.6017 14.5686 14.0196 14.5686C14.2239 14.5686 14.429 14.5503 14.6456 14.5115C14.856 14.472 15.0523 14.4214 15.2288 14.3551L15.4942 15.8153C15.2672 15.9063 15.016 15.9852 14.7392 16.0521C14.4615 16.1184 14.1206 16.1528 13.7178 16.1528C13.2056 16.1528 12.7825 16.0831 12.4461 15.945C12.1112 15.8068 11.8419 15.613 11.6413 15.3657C11.4407 15.1204 11.2997 14.8195 11.2205 14.4671C11.1397 14.1154 11.0991 13.7271 11.0991 13.2986V7.76908Z" fill="white"/>
</mask>
<g mask="url(#mask3_13_335)">
<path d="M7.95117 19.0894H18.6415V4.50274H7.95117L7.95117 19.0894Z" fill="white"/>
</g>
<path d="M30.3469 14.692C30.6901 14.692 30.933 14.6567 31.0771 14.5904C31.2203 14.5235 31.2897 14.3925 31.2897 14.2008C31.2897 14.0493 31.1992 13.9175 31.0136 13.8054C30.8282 13.6913 30.549 13.5644 30.1705 13.4199C29.877 13.3107 29.61 13.198 29.3694 13.0817C29.1318 12.9633 28.9281 12.8252 28.76 12.6609C28.5924 12.4975 28.4627 12.3015 28.3691 12.0732C28.2756 11.849 28.2312 11.5777 28.2312 11.2577C28.2312 10.6382 28.4627 10.147 28.9236 9.78683C29.3852 9.42817 30.0174 9.24495 30.8244 9.24495C31.2279 9.24495 31.6141 9.28086 31.9837 9.35348C32.3526 9.42394 32.6475 9.50434 32.8639 9.58531L32.5373 11.0441C32.3186 10.9687 32.081 10.9025 31.8253 10.8447C31.5696 10.7856 31.2815 10.7545 30.9631 10.7545C30.3756 10.7545 30.0814 10.9194 30.0814 11.2457C30.0814 11.3211 30.0942 11.3881 30.1198 11.4466C30.1455 11.5058 30.1954 11.5622 30.2693 11.6164C30.3469 11.67 30.448 11.7305 30.5792 11.7926C30.7096 11.8582 30.8756 11.9258 31.0771 12.0026C31.4866 12.1548 31.8268 12.3028 32.0954 12.4523C32.3646 12.6017 32.5758 12.7589 32.732 12.9336C32.8873 13.1042 32.9975 13.2932 33.0593 13.503C33.1212 13.7124 33.1536 13.9541 33.1536 14.2297C33.1536 14.883 32.9077 15.377 32.4182 15.711C31.9263 16.0437 31.2309 16.2114 30.3325 16.2114C29.7457 16.2114 29.2569 16.1628 28.867 16.0607C28.4755 15.9613 28.2055 15.8754 28.0547 15.8091L28.3691 14.2882C28.6868 14.4136 29.0171 14.5108 29.3506 14.5843C29.6885 14.6561 30.0174 14.692 30.3469 14.692" fill="white"/>
<mask id="mask4_13_335" style="mask-type:luminance" maskUnits="userSpaceOnUse" x="28" y="9" width="6" height="8">
<path fill-rule="evenodd" clip-rule="evenodd" d="M28.9236 9.78695C29.3853 9.42817 30.0174 9.24495 30.8244 9.24495C31.2281 9.24495 31.6142 9.28086 31.9838 9.35348C32.3526 9.42394 32.6475 9.50422 32.864 9.58531L32.5374 11.0441C32.3186 10.9687 32.0812 10.9025 31.8253 10.8447C31.5697 10.7855 31.2815 10.7546 30.9633 10.7546C30.3756 10.7546 30.0815 10.9193 30.0815 11.2457C30.0815 11.3211 30.0942 11.3881 30.1198 11.4466C30.1456 11.5058 30.1955 11.5622 30.2694 11.6164C30.3469 11.67 30.4481 11.7305 30.5793 11.7926C30.7097 11.8581 30.8756 11.9259 31.0771 12.0026C31.4867 12.1548 31.8269 12.3028 32.0954 12.4523C32.3647 12.6017 32.5759 12.7588 32.7321 12.9336C32.8874 13.1042 32.9975 13.293 33.0594 13.503C33.1213 13.7124 33.1536 13.9541 33.1536 14.2297C33.1536 14.883 32.9077 15.3771 32.4183 15.711C31.9265 16.0437 31.231 16.2114 30.3327 16.2114C29.7458 16.2114 29.2571 16.1628 28.8671 16.0607C28.4755 15.9613 28.2056 15.8754 28.0547 15.8091L28.3693 14.2882C28.6869 14.4137 29.0171 14.5108 29.3506 14.5843C29.6885 14.656 30.0174 14.692 30.3469 14.692C30.6901 14.692 30.9331 14.6568 31.0771 14.5904C31.2205 14.5235 31.2898 14.3925 31.2898 14.2008C31.2898 14.0493 31.1994 13.9175 31.0138 13.8054C30.8282 13.6913 30.549 13.5644 30.1705 13.4199C29.877 13.3107 29.6101 13.198 29.3694 13.0817C29.1319 12.9633 28.9281 12.8252 28.7601 12.6609C28.5925 12.4974 28.4628 12.3015 28.3693 12.0732C28.2757 11.8489 28.2312 11.5777 28.2312 11.2577C28.2312 10.6383 28.4628 10.1471 28.9236 9.78695Z" fill="white"/>
</mask>
<g mask="url(#mask4_13_335)">
<path d="M-90.6606 34.6118L173.735 34.6118V-314.831H-90.6606L-90.6606 34.6118Z" fill="white"/>
</g>
<mask id="mask5_13_335" style="mask-type:luminance" maskUnits="userSpaceOnUse" x="28" y="9" width="6" height="8">
<path fill-rule="evenodd" clip-rule="evenodd" d="M28.9236 9.78695C29.3853 9.42817 30.0174 9.24495 30.8244 9.24495C31.2281 9.24495 31.6142 9.28086 31.9838 9.35348C32.3526 9.42394 32.6475 9.50422 32.864 9.58531L32.5374 11.0441C32.3186 10.9687 32.0812 10.9025 31.8253 10.8447C31.5697 10.7855 31.2815 10.7546 30.9633 10.7546C30.3756 10.7546 30.0815 10.9193 30.0815 11.2457C30.0815 11.3211 30.0942 11.3881 30.1198 11.4466C30.1456 11.5058 30.1955 11.5622 30.2694 11.6164C30.3469 11.67 30.4481 11.7305 30.5793 11.7926C30.7097 11.8581 30.8756 11.9259 31.0771 12.0026C31.4867 12.1548 31.8269 12.3028 32.0954 12.4523C32.3647 12.6017 32.5759 12.7588 32.7321 12.9336C32.8874 13.1042 32.9975 13.293 33.0594 13.503C33.1213 13.7124 33.1536 13.9541 33.1536 14.2297C33.1536 14.883 32.9077 15.3771 32.4183 15.711C31.9265 16.0437 31.231 16.2114 30.3327 16.2114C29.7458 16.2114 29.2571 16.1628 28.8671 16.0607C28.4755 15.9613 28.2056 15.8754 28.0547 15.8091L28.3693 14.2882C28.6869 14.4137 29.0171 14.5108 29.3506 14.5843C29.6885 14.656 30.0174 14.692 30.3469 14.692C30.6901 14.692 30.9331 14.6568 31.0771 14.5904C31.2205 14.5235 31.2898 14.3925 31.2898 14.2008C31.2898 14.0493 31.1994 13.9175 31.0138 13.8054C30.8282 13.6913 30.549 13.5644 30.1705 13.4199C29.877 13.3107 29.6101 13.198 29.3694 13.0817C29.1319 12.9633 28.9281 12.8252 28.7601 12.6609C28.5925 12.4974 28.4628 12.3015 28.3693 12.0732C28.2757 11.8489 28.2312 11.5777 28.2312 11.2577C28.2312 10.6383 28.4628 10.1471 28.9236 9.78695Z" fill="white"/>
</mask>
<g mask="url(#mask5_13_335)">
<path d="M24.9072 19.148H36.3014V6.30842H24.9072V19.148Z" fill="white"/>
</g>
<path d="M38.9374 12.2384C38.7692 12.8755 38.592 13.5098 38.4027 14.137C38.214 14.7664 38.0133 15.3993 37.806 16.0363H36.345C36.1934 15.684 36.0282 15.2654 35.8517 14.7798C35.6736 14.2921 35.4919 13.7628 35.301 13.1871C35.1124 12.6133 34.9194 12.0059 34.7217 11.3631C34.5233 10.7232 34.331 10.0762 34.147 9.42146H36.1247C36.1903 9.72237 36.265 10.053 36.3456 10.4088C36.4257 10.7654 36.5101 11.1326 36.5984 11.5104C36.6867 11.8868 36.7809 12.2651 36.8774 12.6471C36.9748 13.0291 37.0744 13.3949 37.1753 13.7467C37.2848 13.3781 37.3919 13.0017 37.4967 12.6161C37.6001 12.23 37.702 11.8508 37.7992 11.478C37.895 11.1059 37.9893 10.7444 38.0752 10.3962C38.1628 10.0487 38.2405 9.72237 38.3091 9.42146H39.6676C39.737 9.72237 39.81 10.0487 39.8952 10.3962C39.9782 10.7444 40.0666 11.1059 40.1601 11.478C40.2506 11.8508 40.3494 12.23 40.4482 12.6161C40.55 13.0017 40.6542 13.3781 40.7621 13.7467C40.8638 13.3949 40.9649 13.0291 41.0667 12.6471C41.1686 12.2651 41.2643 11.8868 41.3518 11.5104C41.4394 11.1326 41.5238 10.7654 41.6054 10.4088C41.686 10.053 41.7592 9.72237 41.8263 9.42146H43.7784C43.5929 10.0762 43.402 10.7232 43.2037 11.3631C43.0037 12.0059 42.8129 12.6133 42.6221 13.1871C42.4342 13.7628 42.2487 14.2921 42.0684 14.7798C41.8867 15.2654 41.7191 15.684 41.5699 16.0363H40.1089C39.8975 15.3993 39.6925 14.7664 39.4903 14.137C39.2889 13.5098 39.1063 12.8755 38.9374 12.2384" fill="white"/>
<mask id="mask6_13_335" style="mask-type:luminance" maskUnits="userSpaceOnUse" x="34" y="9" width="10" height="8">
<path fill-rule="evenodd" clip-rule="evenodd" d="M41.8263 9.42162H43.7784C43.5929 10.0764 43.402 10.7234 43.2036 11.3631C43.0037 12.006 42.8129 12.6135 42.622 13.1872C42.4342 13.763 42.2487 14.2922 42.0682 14.7799C41.8866 15.2655 41.7191 15.684 41.5698 16.0365H40.1088C39.8975 15.3995 39.6925 14.7664 39.4903 14.1371C39.2889 13.51 39.1063 12.8757 38.9374 12.2385C38.7691 12.8757 38.5918 13.51 38.4027 14.1371C38.214 14.7664 38.0133 15.3995 37.8059 16.0365H36.3449C36.1933 15.684 36.0281 15.2655 35.8516 14.7799C35.6736 14.2922 35.4918 13.763 35.301 13.1872C35.1124 12.6135 34.9193 12.006 34.7217 11.3631C34.5233 10.7234 34.331 10.0764 34.147 9.42162H36.1246C36.1903 9.72253 36.265 10.053 36.3456 10.409C36.4257 10.7656 36.51 11.1328 36.5984 11.5105C36.6865 11.8868 36.7809 12.2653 36.8774 12.6473C36.9748 13.0293 37.0744 13.395 37.1753 13.7468C37.2847 13.3782 37.3918 13.0017 37.4966 12.6163C37.6 12.2302 37.702 11.8509 37.7992 11.4782C37.8949 11.1059 37.9892 10.7444 38.0752 10.3964C38.1628 10.0488 38.2405 9.72253 38.309 9.42162H39.6676C39.7368 9.72253 39.81 10.0488 39.8952 10.3964C39.9782 10.7444 40.0666 11.1059 40.16 11.4782C40.2506 11.8509 40.3493 12.2302 40.4482 12.6163C40.55 13.0017 40.6542 13.3782 40.7619 13.7468C40.8638 13.395 40.9648 13.0293 41.0667 12.6473C41.1686 12.2653 41.2643 11.8868 41.3518 11.5105C41.4394 11.1328 41.5238 10.7656 41.6052 10.409C41.686 10.053 41.7592 9.72253 41.8263 9.42162Z" fill="white"/>
</mask>
<g mask="url(#mask6_13_335)">
<path d="M-90.6611 34.6118L173.735 34.6118V-314.831H-90.6611L-90.6611 34.6118Z" fill="white"/>
</g>
<mask id="mask7_13_335" style="mask-type:luminance" maskUnits="userSpaceOnUse" x="34" y="9" width="10" height="8">
<path fill-rule="evenodd" clip-rule="evenodd" d="M41.8263 9.42162H43.7784C43.5929 10.0764 43.402 10.7234 43.2036 11.3631C43.0037 12.006 42.8129 12.6135 42.622 13.1872C42.4342 13.763 42.2487 14.2922 42.0682 14.7799C41.8866 15.2655 41.7191 15.684 41.5698 16.0365H40.1088C39.8975 15.3995 39.6925 14.7664 39.4903 14.1371C39.2889 13.51 39.1063 12.8757 38.9374 12.2385C38.7691 12.8757 38.5918 13.51 38.4027 14.1371C38.214 14.7664 38.0133 15.3995 37.8059 16.0365H36.3449C36.1933 15.684 36.0281 15.2655 35.8516 14.7799C35.6736 14.2922 35.4918 13.763 35.301 13.1872C35.1124 12.6135 34.9193 12.006 34.7217 11.3631C34.5233 10.7234 34.331 10.0764 34.147 9.42162H36.1246C36.1903 9.72253 36.265 10.053 36.3456 10.409C36.4257 10.7656 36.51 11.1328 36.5984 11.5105C36.6865 11.8868 36.7809 12.2653 36.8774 12.6473C36.9748 13.0293 37.0744 13.395 37.1753 13.7468C37.2847 13.3782 37.3918 13.0017 37.4966 12.6163C37.6 12.2302 37.702 11.8509 37.7992 11.4782C37.8949 11.1059 37.9892 10.7444 38.0752 10.3964C38.1628 10.0488 38.2405 9.72253 38.309 9.42162H39.6676C39.7368 9.72253 39.81 10.0488 39.8952 10.3964C39.9782 10.7444 40.0666 11.1059 40.16 11.4782C40.2506 11.8509 40.3493 12.2302 40.4482 12.6163C40.55 13.0017 40.6542 13.3782 40.7619 13.7468C40.8638 13.395 40.9648 13.0293 41.0667 12.6473C41.1686 12.2653 41.2643 11.8868 41.3518 11.5105C41.4394 11.1328 41.5238 10.7656 41.6052 10.409C41.686 10.053 41.7592 9.72253 41.8263 9.42162Z" fill="white"/>
</mask>
<g mask="url(#mask7_13_335)">
<path d="M30.9995 18.9731H46.9261V6.48518L30.9995 6.48518V18.9731Z" fill="white"/>
</g>
<path d="M45.105 16.0338H46.9787V9.42036H45.105V16.0338Z" fill="white"/>
<mask id="mask8_13_335" style="mask-type:luminance" maskUnits="userSpaceOnUse" x="45" y="9" width="2" height="8">
<path fill-rule="evenodd" clip-rule="evenodd" d="M45.105 16.034V9.42051H46.9788V16.034H45.105Z" fill="white"/>
</mask>
<g mask="url(#mask8_13_335)">
<path d="M-90.6606 34.6118L173.735 34.6118V-314.831H-90.6606L-90.6606 34.6118Z" fill="white"/>
</g>
<mask id="mask9_13_335" style="mask-type:luminance" maskUnits="userSpaceOnUse" x="45" y="9" width="2" height="8">
<path fill-rule="evenodd" clip-rule="evenodd" d="M45.105 16.034V9.42051H46.9788V16.034H45.105Z" fill="white"/>
</mask>
<g mask="url(#mask9_13_335)">
<path d="M41.9575 18.9704H50.1263V6.4839H41.9575V18.9704Z" fill="white"/>
</g>
<path d="M48.4692 7.77104L50.3444 7.43914V9.42368H52.2V10.9798H50.3444V13.307C50.3444 13.7008 50.4138 14.0181 50.5518 14.2499C50.6898 14.4846 50.9696 14.6023 51.3884 14.6023C51.5912 14.6023 51.7994 14.5854 52.0121 14.5466C52.227 14.5085 52.4217 14.4543 52.5989 14.3888L52.8622 15.8477C52.6351 15.9405 52.3824 16.0196 52.1072 16.0872C51.8287 16.1534 51.4917 16.1872 51.0873 16.1872C50.5745 16.1872 50.1513 16.1183 49.8156 15.9786C49.4793 15.8426 49.2107 15.6503 49.0101 15.4007C48.8094 15.1555 48.6692 14.8531 48.5885 14.5029C48.507 14.1499 48.4692 13.7594 48.4692 13.3329V7.77104Z" fill="white"/>
<mask id="mask10_13_335" style="mask-type:luminance" maskUnits="userSpaceOnUse" x="48" y="7" width="5" height="10">
<path fill-rule="evenodd" clip-rule="evenodd" d="M48.4692 7.77104L50.3443 7.43914V9.42368H52.1999V10.9798H50.3443V13.307C50.3443 13.7008 50.4138 14.018 50.5518 14.2499C50.6898 14.4846 50.9696 14.6022 51.3882 14.6022C51.5911 14.6022 51.7994 14.5854 52.0121 14.5466C52.227 14.5084 52.4217 14.4543 52.5988 14.3888L52.8621 15.8476C52.6351 15.9405 52.3823 16.0196 52.1072 16.0872C51.8287 16.1534 51.4917 16.1872 51.0873 16.1872C50.5745 16.1872 50.1512 16.1183 49.8156 15.9786C49.4791 15.8425 49.2107 15.6503 49.0101 15.4008C48.8094 15.1555 48.6692 14.8532 48.5884 14.5029C48.507 14.1499 48.4692 13.7593 48.4692 13.333V7.77104Z" fill="white"/>
</mask>
<g mask="url(#mask10_13_335)">
<path d="M-90.6606 34.6118L173.735 34.6118V-314.831H-90.6606L-90.6606 34.6118Z" fill="white"/>
</g>
<mask id="mask11_13_335" style="mask-type:luminance" maskUnits="userSpaceOnUse" x="48" y="7" width="5" height="10">
<path fill-rule="evenodd" clip-rule="evenodd" d="M48.4692 7.77104L50.3443 7.43914V9.42368H52.1999V10.9798H50.3443V13.307C50.3443 13.7008 50.4138 14.018 50.5518 14.2499C50.6898 14.4846 50.9696 14.6022 51.3882 14.6022C51.5911 14.6022 51.7994 14.5854 52.0121 14.5466C52.227 14.5084 52.4217 14.4543 52.5988 14.3888L52.8621 15.8476C52.6351 15.9405 52.3823 16.0196 52.1072 16.0872C51.8287 16.1534 51.4917 16.1872 51.0873 16.1872C50.5745 16.1872 50.1512 16.1183 49.8156 15.9786C49.4791 15.8425 49.2107 15.6503 49.0101 15.4008C48.8094 15.1555 48.6692 14.8532 48.5884 14.5029C48.507 14.1499 48.4692 13.7593 48.4692 13.333V7.77104Z" fill="white"/>
</mask>
<g mask="url(#mask11_13_335)">
<path d="M45.3218 19.1238H56.01V4.5026H45.3218V19.1238Z" fill="white"/>
</g>
<path d="M53.5249 12.7306C53.5249 12.2519 53.6027 11.801 53.7581 11.3781C53.9134 10.9538 54.1375 10.586 54.431 10.2709C54.7251 9.95596 55.0811 9.70778 55.5019 9.52251C55.9206 9.33997 56.3988 9.2455 56.9359 9.2455C57.2881 9.2455 57.6117 9.27867 57.9058 9.34065C58.2001 9.40481 58.4867 9.49437 58.762 9.61056L58.3729 11.1069C58.1956 11.0405 58.0031 10.9828 57.792 10.9306C57.5823 10.8812 57.3462 10.8552 57.0868 10.8552C56.5331 10.8552 56.1189 11.0278 55.8481 11.3717C55.5728 11.7164 55.4385 12.1682 55.4385 12.7306C55.4385 13.3246 55.566 13.7862 55.8241 14.1133C56.0775 14.4396 56.5256 14.6038 57.1629 14.6038C57.3899 14.6038 57.632 14.5819 57.8938 14.5403C58.1533 14.498 58.3924 14.4318 58.6126 14.3388L58.8752 15.8738C58.6563 15.9661 58.3849 16.0436 58.0576 16.1119C57.7286 16.1783 57.3687 16.2127 56.9751 16.2127C56.3708 16.2127 55.849 16.1211 55.4137 15.9413C54.9778 15.7617 54.6179 15.5164 54.3373 15.2063C54.0545 14.8956 53.8509 14.5291 53.7204 14.1062C53.5899 13.6827 53.5249 13.2233 53.5249 12.7306" fill="white"/>
<mask id="mask12_13_335" style="mask-type:luminance" maskUnits="userSpaceOnUse" x="53" y="9" width="6" height="8">
<path fill-rule="evenodd" clip-rule="evenodd" d="M55.5019 9.52251C55.9206 9.33997 56.3988 9.2455 56.9359 9.2455C57.2881 9.2455 57.6117 9.27856 57.9058 9.34054C58.2 9.40481 58.4867 9.49425 58.762 9.61056L58.3729 11.1067C58.1955 11.0405 58.0031 10.9828 57.7919 10.9306C57.5822 10.8811 57.3462 10.8551 57.0866 10.8551C56.5331 10.8551 56.1189 11.0278 55.8481 11.3717C55.5728 11.7163 55.4385 12.1681 55.4385 12.7306C55.4385 13.3246 55.5662 13.7862 55.8241 14.1133C56.0775 14.4396 56.5254 14.6038 57.1628 14.6038C57.3899 14.6038 57.632 14.5819 57.8938 14.5403C58.1533 14.498 58.3923 14.4318 58.6125 14.3387L58.8751 15.8738C58.6564 15.9661 58.3849 16.0435 58.0574 16.1119C57.7286 16.1782 57.3688 16.2127 56.9751 16.2127C56.3707 16.2127 55.849 16.121 55.4137 15.9412C54.9778 15.7616 54.6179 15.5164 54.3372 15.2064C54.0546 14.8956 53.8509 14.5291 53.7204 14.1062C53.5899 13.6827 53.5249 13.2231 53.5249 12.7306C53.5249 12.2519 53.6027 11.801 53.7581 11.3781C53.9134 10.9538 54.1375 10.5859 54.4308 10.2708C54.7251 9.95584 55.0811 9.70778 55.5019 9.52251Z" fill="white"/>
</mask>
<g mask="url(#mask12_13_335)">
<path d="M-90.6606 34.6118L173.735 34.6118V-314.831H-90.6606L-90.6606 34.6118Z" fill="white"/>
</g>
<mask id="mask13_13_335" style="mask-type:luminance" maskUnits="userSpaceOnUse" x="53" y="9" width="6" height="8">
<path fill-rule="evenodd" clip-rule="evenodd" d="M55.5019 9.52251C55.9206 9.33997 56.3988 9.2455 56.9359 9.2455C57.2881 9.2455 57.6117 9.27856 57.9058 9.34054C58.2 9.40481 58.4867 9.49425 58.762 9.61056L58.3729 11.1067C58.1955 11.0405 58.0031 10.9828 57.7919 10.9306C57.5822 10.8811 57.3462 10.8551 57.0866 10.8551C56.5331 10.8551 56.1189 11.0278 55.8481 11.3717C55.5728 11.7163 55.4385 12.1681 55.4385 12.7306C55.4385 13.3246 55.5662 13.7862 55.8241 14.1133C56.0775 14.4396 56.5254 14.6038 57.1628 14.6038C57.3899 14.6038 57.632 14.5819 57.8938 14.5403C58.1533 14.498 58.3923 14.4318 58.6125 14.3387L58.8751 15.8738C58.6564 15.9661 58.3849 16.0435 58.0574 16.1119C57.7286 16.1782 57.3688 16.2127 56.9751 16.2127C56.3707 16.2127 55.849 16.121 55.4137 15.9412C54.9778 15.7616 54.6179 15.5164 54.3372 15.2064C54.0546 14.8956 53.8509 14.5291 53.7204 14.1062C53.5899 13.6827 53.5249 13.2231 53.5249 12.7306C53.5249 12.2519 53.6027 11.801 53.7581 11.3781C53.9134 10.9538 54.1375 10.5859 54.4308 10.2708C54.7251 9.95584 55.0811 9.70778 55.5019 9.52251Z" fill="white"/>
</mask>
<g mask="url(#mask13_13_335)">
<path d="M50.3774 19.1493H62.0227V6.30899H50.3774V19.1493Z" fill="white"/>
</g>
<path d="M60.0874 16.034V7.76854L61.9633 7.4395V9.44805C62.0884 9.40641 62.2492 9.36627 62.4484 9.3283C62.6444 9.2909 62.8367 9.27112 63.0209 9.27112C63.5571 9.27112 64.0028 9.34512 64.3603 9.49105C64.7164 9.63767 65.0038 9.8456 65.2164 10.114C65.4322 10.3812 65.5815 10.7011 65.6714 11.0683C65.758 11.4382 65.8017 11.8499 65.8017 12.3024V16.034H63.9266V12.5271C63.9266 11.9238 63.849 11.4967 63.6944 11.2438C63.5389 10.9949 63.2508 10.8689 62.8322 10.8689C62.6618 10.8689 62.5062 10.8837 62.3585 10.9119C62.2121 10.9415 62.0802 10.9738 61.9633 11.007V16.034H60.0874Z" fill="white"/>
<mask id="mask14_13_335" style="mask-type:luminance" maskUnits="userSpaceOnUse" x="60" y="7" width="6" height="10">
<path fill-rule="evenodd" clip-rule="evenodd" d="M60.0874 7.76854L61.9632 7.4395V9.44817C62.0884 9.40641 62.2492 9.36627 62.4484 9.3283C62.6444 9.2909 62.8367 9.27124 63.0209 9.27124C63.5571 9.27124 64.0029 9.34523 64.3604 9.49105C64.7164 9.63779 65.0039 9.8456 65.2164 10.1141C65.4321 10.3812 65.5816 10.7011 65.6714 11.0684C65.758 11.4383 65.8017 11.8499 65.8017 12.3025V16.034H63.9267V12.5271C63.9267 11.9239 63.8488 11.4967 63.6944 11.2438C63.5389 10.995 63.2508 10.8689 62.8322 10.8689C62.6618 10.8689 62.5062 10.8837 62.3585 10.912C62.2121 10.9415 62.0802 10.9738 61.9632 11.007V16.034H60.0874V7.76854Z" fill="white"/>
</mask>
<g mask="url(#mask14_13_335)">
<path d="M-90.6606 34.6118L173.735 34.6118V-314.831H-90.6606L-90.6606 34.6118Z" fill="white"/>
</g>
<mask id="mask15_13_335" style="mask-type:luminance" maskUnits="userSpaceOnUse" x="60" y="7" width="6" height="10">
<path fill-rule="evenodd" clip-rule="evenodd" d="M60.0874 7.76854L61.9632 7.4395V9.44817C62.0884 9.40641 62.2492 9.36627 62.4484 9.3283C62.6444 9.2909 62.8367 9.27124 63.0209 9.27124C63.5571 9.27124 64.0029 9.34523 64.3604 9.49105C64.7164 9.63779 65.0039 9.8456 65.2164 10.1141C65.4321 10.3812 65.5816 10.7011 65.6714 11.0684C65.758 11.4383 65.8017 11.8499 65.8017 12.3025V16.034H63.9267V12.5271C63.9267 11.9239 63.8488 11.4967 63.6944 11.2438C63.5389 10.995 63.2508 10.8689 62.8322 10.8689C62.6618 10.8689 62.5062 10.8837 62.3585 10.912C62.2121 10.9415 62.0802 10.9738 61.9632 11.007V16.034H60.0874V7.76854Z" fill="white"/>
</mask>
<g mask="url(#mask15_13_335)">
<path d="M56.9399 18.9706H68.9494V4.50294H56.9399V18.9706Z" fill="white"/>
</g>
<path d="M3.53174 16.0362L3.53174 10.0429C3.53174 10.0429 4.47457 9.29093 6.53679 9.29093C8.4134 9.29093 9.44389 10.2276 9.44389 12.289V16.0362H7.56949V12.289C7.56949 10.976 6.91167 10.8851 6.34971 10.8851C5.78777 10.8851 5.41141 11.1642 5.41141 11.1642V16.0362H3.53174Z" fill="white"/>
<mask id="mask16_13_335" style="mask-type:luminance" maskUnits="userSpaceOnUse" x="3" y="9" width="7" height="8">
<path fill-rule="evenodd" clip-rule="evenodd" d="M3.53174 10.0429C3.53174 10.0429 4.47457 9.29093 6.53679 9.29093C8.41339 9.29093 9.44376 10.2275 9.44376 12.2891V16.0362H7.56948V12.2891C7.56948 10.9759 6.91167 10.8851 6.34971 10.8851C5.78777 10.8851 5.41141 11.1643 5.41141 11.1643V16.0362H3.53174L3.53174 10.0429Z" fill="white"/>
</mask>
<g mask="url(#mask16_13_335)">
<path d="M-90.6606 34.6118L173.735 34.6118V-314.831H-90.6606L-90.6606 34.6118Z" fill="white"/>
</g>
<mask id="mask17_13_335" style="mask-type:luminance" maskUnits="userSpaceOnUse" x="3" y="9" width="7" height="8">
<path fill-rule="evenodd" clip-rule="evenodd" d="M3.53174 10.0429C3.53174 10.0429 4.47457 9.29093 6.53679 9.29093C8.41339 9.29093 9.44376 10.2275 9.44376 12.2891V16.0362H7.56948V12.2891C7.56948 10.9759 6.91167 10.8851 6.34971 10.8851C5.78777 10.8851 5.41141 11.1643 5.41141 11.1643V16.0362H3.53174L3.53174 10.0429Z" fill="white"/>
</mask>
<g mask="url(#mask17_13_335)">
<path d="M0.384277 18.9728H12.5913V6.35451H0.384277L0.384277 18.9728Z" fill="white"/>
</g>
<path d="M0 16.0362L0 7.76931L1.87662 7.43943L1.87662 16.0362H0Z" fill="white"/>
<mask id="mask18_13_335" style="mask-type:luminance" maskUnits="userSpaceOnUse" x="0" y="7" width="2" height="10">
<path fill-rule="evenodd" clip-rule="evenodd" d="M0 7.76942L1.87662 7.43943L1.87662 16.0362H0L0 7.76942Z" fill="white"/>
</mask>
<g mask="url(#mask18_13_335)">
<path d="M-90.6606 34.6118L173.735 34.6118V-314.831H-90.6606L-90.6606 34.6118Z" fill="white"/>
</g>
<mask id="mask19_13_335" style="mask-type:luminance" maskUnits="userSpaceOnUse" x="0" y="7" width="2" height="10">
<path fill-rule="evenodd" clip-rule="evenodd" d="M0 7.76942L1.87662 7.43943L1.87662 16.0362H0L0 7.76942Z" fill="white"/>
</mask>
<g mask="url(#mask19_13_335)">
<path d="M-3.14746 18.9728H5.02438L5.02438 4.50304H-3.14746L-3.14746 18.9728Z" fill="white"/>
</g>
<path fill-rule="evenodd" clip-rule="evenodd" d="M17.9386 13.2041L22.1596 13.2041C22.3482 12.0778 22.1596 9.27156 19.3447 9.27156C17.4687 9.27156 16.1562 10.581 16.1562 12.6432C16.1562 15.2654 17.8443 16.2007 19.7218 16.2007C21.0342 16.2007 21.9718 15.8293 21.9718 15.8293L21.784 14.3289C21.784 14.3289 20.8457 14.6087 19.9073 14.6087C18.0329 14.6087 17.9386 13.2041 17.9386 13.2041ZM17.9386 11.8917C17.9386 11.8917 18.0329 10.5809 19.2526 10.5809C20.4716 10.5809 20.5635 11.8917 20.5635 11.8917L17.9386 11.8917Z" fill="white"/>
<mask id="mask20_13_335" style="mask-type:luminance" maskUnits="userSpaceOnUse" x="16" y="9" width="7" height="8">
<path fill-rule="evenodd" clip-rule="evenodd" d="M16.1562 12.643C16.1562 10.5809 17.4687 9.27145 19.3446 9.27145C22.1595 9.27145 22.348 12.0778 22.1595 13.204L17.9386 13.204C17.9386 13.204 18.0329 14.6086 19.9071 14.6086C20.8456 14.6086 21.7839 14.3287 21.7839 14.3287L21.9717 15.8291C21.9717 15.8291 21.0341 16.2007 19.7217 16.2007C17.8443 16.2007 16.1562 15.2654 16.1562 12.643ZM19.2525 10.5808C18.0329 10.5808 17.9386 11.8917 17.9386 11.8917L20.5635 11.8917C20.5635 11.8917 20.4714 10.5808 19.2525 10.5808Z" fill="white"/>
</mask>
<g mask="url(#mask20_13_335)">
<path d="M-90.6606 34.6118L173.735 34.6118V-314.831H-90.6606L-90.6606 34.6118Z" fill="white"/>
</g>
<mask id="mask21_13_335" style="mask-type:luminance" maskUnits="userSpaceOnUse" x="16" y="9" width="7" height="8">
<path fill-rule="evenodd" clip-rule="evenodd" d="M16.1562 12.643C16.1562 10.5809 17.4687 9.27145 19.3446 9.27145C22.1595 9.27145 22.348 12.0778 22.1595 13.204L17.9386 13.204C17.9386 13.204 18.0329 14.6086 19.9071 14.6086C20.8456 14.6086 21.7839 14.3287 21.7839 14.3287L21.9717 15.8291C21.9717 15.8291 21.0341 16.2007 19.7217 16.2007C17.8443 16.2007 16.1562 15.2654 16.1562 12.643ZM19.2525 10.5808C18.0329 10.5808 17.9386 11.8917 17.9386 11.8917L20.5635 11.8917C20.5635 11.8917 20.4714 10.5808 19.2525 10.5808Z" fill="white"/>
</mask>
<g mask="url(#mask21_13_335)">
<path d="M13.0088 19.1372H25.3597V6.33493H13.0088V19.1372Z" fill="white"/>
</g>
<mask id="mask22_13_335" style="mask-type:luminance" maskUnits="userSpaceOnUse" x="68" y="6" width="13" height="15">
<path fill-rule="evenodd" clip-rule="evenodd" d="M68.2871 7.44115C68.2871 7.04154 73.6823 6.1792 77.3007 6.1792C78.8698 6.1792 80.1047 6.34138 80.4206 6.77369C82.0498 8.78087 70.5803 21.3735 69.6246 20.9915C68.8581 20.8005 75.7395 12.7853 74.5924 9.53994C74.0198 7.82382 68.2871 8.01471 68.2871 7.44115Z" fill="white"/>
</mask>
<g mask="url(#mask22_13_335)">
<path d="M65.1396 23.9366H83.7263V3.24276H65.1396V23.9366Z" fill="#EE312A"/>
</g>
<mask id="mask23_13_335" style="mask-type:luminance" maskUnits="userSpaceOnUse" x="78" y="0" width="5" height="5">
<path fill-rule="evenodd" clip-rule="evenodd" d="M78.0322 2.47998C78.0322 1.10927 79.1449 3.85939e-07 80.5161 3.85939e-07C81.8888 3.85939e-07 82.9999 1.10927 82.9999 2.47998C82.9999 3.85138 81.8888 4.96065 80.5161 4.96065C79.1449 4.96065 78.0322 3.85138 78.0322 2.47998Z" fill="white"/>
</mask>
<g mask="url(#mask23_13_335)">
<path d="M74.8848 7.8972L86.1476 7.8972V-2.93663H74.8848V7.8972Z" fill="#EE312A"/>
</g>
</svg>
