<svg width="56" height="56" viewBox="0 0 56 56" fill="none" xmlns="http://www.w3.org/2000/svg">
<rect x="1" y="1" width="54" height="54" rx="27" fill="white"/>
<rect x="1" y="1" width="54" height="54" rx="27" stroke="#F2F1F1" stroke-width="2"/>
<path d="M18.6842 11.6444V17.453H15.75V21.3556H36.15V14.1403L23.9473 17.453V11.6444H18.6842Z" fill="#2C0E01"/>
<path d="M36.15 22.3778H15.75V26.5382H18.9637V32.2813C19.4108 37.3824 25.0651 37.6627 27.8596 36.6226V32.9597C27.3007 33.638 24.1336 33.5476 24.1336 32.2813C24.1336 30.079 23.497 27.2316 24.1336 26.5382H31.1199V36.6226C31.1199 38.938 29.4897 40.4363 27.8596 39.4716V44.3556C33.6815 44.3556 36.15 43.9214 36.15 39.4716V22.3778Z" fill="#2C0E01"/>
<ellipse cx="41.7446" cy="41.2889" rx="3.06" ry="3.06667" fill="#FD6422"/>
</svg>
